<svg width="30" height="26" viewBox="0 0 30 26" fill="none" xmlns="http://www.w3.org/2000/svg">
<path d="M26.0497 3.76249C25.4112 3.12375 24.6532 2.61705 23.8189 2.27135C22.9845 1.92565 22.0903 1.74771 21.1872 1.74771C20.2841 1.74771 19.3898 1.92565 18.5555 2.27135C17.7211 2.61705 16.9631 3.12375 16.3247 3.76249L14.9997 5.08749L13.6747 3.76249C12.385 2.47288 10.636 1.74838 8.81216 1.74838C6.98837 1.74838 5.23928 2.47288 3.94966 3.76249C2.66005 5.05211 1.93555 6.8012 1.93555 8.62499C1.93555 10.4488 2.66005 12.1979 3.94966 13.4875L5.27466 14.8125L14.9997 24.5375L24.7247 14.8125L26.0497 13.4875C26.6884 12.849 27.1951 12.091 27.5408 11.2567C27.8865 10.4224 28.0644 9.5281 28.0644 8.62499C28.0644 7.72188 27.8865 6.82762 27.5408 5.9933C27.1951 5.15897 26.6884 4.40094 26.0497 3.76249V3.76249Z" stroke="#4F4F4F" stroke-width="2" stroke-linecap="round" stroke-linejoin="round"/>
</svg>
